<svg xmlns="http://www.w3.org/2000/svg" width="281.727" height="53.628" viewBox="0 0 281.727 53.628">
  <g id="Group_87803" data-name="Group 87803" transform="translate(-46.641 -379.726)">
    <g id="Group_86798" data-name="Group 86798" transform="translate(-199.854 -81.734)">
      <path id="Path_157026" data-name="Path 157026" d="M266.062,470.09H254.894l11.168,24.076-19.567,24.347h10.961l12.42-16.23.005.005,6.934-9.057Z" transform="translate(0 -4.051)" fill="#0ac8ff"/>
      <path id="Path_157027" data-name="Path 157027" d="M302.3,523.761l-.032-.074-.907-1.937-6.8,9.327L300,542.765h11.173Z" transform="translate(-22.562 -28.303)" fill="#051229"/>
      <path id="Path_157028" data-name="Path 157028" d="M312.6,470.09,303.365,482.3l3.677,8.436,16.59-20.649Z" transform="translate(-26.698 -4.051)" fill="#051229"/>
      <path id="Path_157029" data-name="Path 157029" d="M358.667,488.492h8.6l1.39-7.979h-8.537l1.666-9.5h-9.778l-1.666,9.5H345.7l-1.39,7.979h4.579l-3.258,18.521a18.982,18.982,0,0,0-.281,3.263q0,8.674,10.409,8.669h6.17l1.459-8.186H358.8a4.6,4.6,0,0,1-2.669-.589,2.283,2.283,0,0,1-.8-1.974,6.974,6.974,0,0,1,.069-1.114Z" transform="translate(-45.917 -4.483)" fill="#051229"/>
      <path id="Path_157030" data-name="Path 157030" d="M411.822,489.822A18.922,18.922,0,0,0,406,495.233l1.178-6.8h-9.783l-6.8,38.433h9.783l3.6-20.532q1.186-4.512,3.783-6.382a11.585,11.585,0,0,1,6.9-1.873h2.568l1.8-10.2A14.087,14.087,0,0,0,411.822,489.822Z" transform="translate(-67.648 -12.403)" fill="#051229"/>
      <path id="Path_157031" data-name="Path 157031" d="M478.457,488.371l-.971,5.481a11.077,11.077,0,0,0-4.335-4.366,14.082,14.082,0,0,0-7.247-1.735,19.243,19.243,0,0,0-9.369,2.425,21.681,21.681,0,0,0-7.523,6.94,26.157,26.157,0,0,0-4.128,10.335,25.665,25.665,0,0,0-.419,4.51,17.573,17.573,0,0,0,1.8,8.155,13.042,13.042,0,0,0,5.067,5.412,14.578,14.578,0,0,0,7.491,1.9,18.338,18.338,0,0,0,13.874-6.245l-1.04,5.618h9.783l6.8-38.433Zm-3.4,19.217a14.71,14.71,0,0,1-2.467,6.038,12.663,12.663,0,0,1-4.4,3.921,11.19,11.19,0,0,1-5.274,1.353,8.032,8.032,0,0,1-5.963-2.393,8.928,8.928,0,0,1-2.361-6.558,16.18,16.18,0,0,1,.207-2.5,14.193,14.193,0,0,1,2.5-6,12.88,12.88,0,0,1,4.4-3.852,11.274,11.274,0,0,1,5.242-1.316,8.052,8.052,0,0,1,8.393,8.669A20.116,20.116,0,0,1,475.062,507.587Z" transform="translate(-92.937 -12.342)" fill="#051229"/>
      <path id="Path_157032" data-name="Path 157032" d="M551.6,468.362q1.974-1.623,6.207-1.629l.9-5.274q-7.282,0-11.1,2.95t-4.992,9.332l-.488,2.706h-4.855l-.9,5.2h4.854l-5.756,32.814h6.314l5.825-32.814h7.979l.9-5.2h-7.979l.488-2.706A8.517,8.517,0,0,1,551.6,468.362Z" transform="translate(-135.662)" fill="#0ac8ff"/>
      <path id="Path_157033" data-name="Path 157033" d="M583,476.636l-6.733,38.014h6.314l6.733-38.014Zm8.393-13.8a3.468,3.468,0,0,0-2.568-.971,4.9,4.9,0,0,0-3.539,1.491,4.827,4.827,0,0,0-1.523,3.571,3.438,3.438,0,0,0,3.539,3.539,4.908,4.908,0,0,0,3.533-1.491,4.813,4.813,0,0,0,1.528-3.571A3.468,3.468,0,0,0,591.391,462.831Z" transform="translate(-154.811 -0.188)" fill="#0ac8ff"/>
      <path id="Path_157034" data-name="Path 157034" d="M643.26,491.557q-3.533-3.159-9.433-3.157A17.806,17.806,0,0,0,626.4,490a15.489,15.489,0,0,0-5.9,4.579l.971-5.481h-6.314l-6.727,38.014h6.313l3.746-21.158v.138q1.043-5.961,4.542-9.088a12.346,12.346,0,0,1,8.5-3.12,9.016,9.016,0,0,1,6.489,2.223q2.324,2.22,2.324,6.451a16.688,16.688,0,0,1-.276,3.051l-3.82,21.5H642.5l3.958-22.405a20.526,20.526,0,0,0,.345-3.953Q646.8,494.711,643.26,491.557Z" transform="translate(-169.913 -12.647)" fill="#0ac8ff"/>
      <path id="Path_157035" data-name="Path 157035" d="M731.529,464.6l-3.539,20.118a11.588,11.588,0,0,0-4.923-5.374,15.142,15.142,0,0,0-7.842-2.048,20.427,20.427,0,0,0-9.709,2.43,22.191,22.191,0,0,0-7.735,6.833,24.686,24.686,0,0,0-4.2,10.229,22.02,22.02,0,0,0-.419,4.234,16.974,16.974,0,0,0,1.91,8.186,13.361,13.361,0,0,0,5.305,5.449,15.79,15.79,0,0,0,7.842,1.9,18.833,18.833,0,0,0,9.019-2.186,18.641,18.641,0,0,0,6.521-5.581l-1.321,7.141h6.383l9.088-51.336Zm-5.687,32.263a18.085,18.085,0,0,1-3.088,7.523,16.043,16.043,0,0,1-5.55,4.929,14.341,14.341,0,0,1-6.765,1.7,10.378,10.378,0,0,1-7.629-2.95,10.84,10.84,0,0,1-2.987-8.08,17.08,17.08,0,0,1,.281-3.194,18.069,18.069,0,0,1,3.051-7.491,15.494,15.494,0,0,1,5.518-4.855,14.561,14.561,0,0,1,6.765-1.666,10.5,10.5,0,0,1,7.661,2.95,10.675,10.675,0,0,1,3.019,8.011A16.708,16.708,0,0,1,725.842,496.863Z" transform="translate(-209.689 -1.474)" fill="#0ac8ff"/>
    </g>
  </g>
</svg>
